<?xml version="1.0" encoding="utf-8"?>
<!-- Generator: Adobe Illustrator 24.0.1, SVG Export Plug-In . SVG Version: 6.00 Build 0)  -->
<svg version="1.1" id="Camada_1" xmlns="http://www.w3.org/2000/svg" xmlns:xlink="http://www.w3.org/1999/xlink" x="0px" y="0px"
	 viewBox="0 0 4252 708.7" style="enable-background:new 0 0 4252 708.7;" xml:space="preserve">
<style type="text/css">
	.st0{fill:#FFFFFF;}
	.st1{font-family:'NoeDisplay-Regular';}
	.st2{font-size:772.783px;}
	.st3{letter-spacing:7;}
</style>
<path d="M750.8,358.8c0,163.8-131.8,296.5-294.5,296.5S161.8,522.6,161.8,358.8S293.6,62.3,456.3,62.3S750.8,195,750.8,358.8"/>
<path d="M1238.4,491.5c33.5-87.4,25.8-172.8-19.4-254.6c-26.3-47.6-63-86.1-107.8-116.8c-40.7-27.9-85-47.2-134.2-53.7
	c-51.4-6.8-99.1,2.2-141.6,33.4c0,0-60.6,48.3-55.8,86.3c5,39.7,80.4,131.2,80.4,131.2l0-0.1c2.1,2.8,4.2,5.5,6.3,8.3
	c14.8,19.3,14.5,32.1-0.9,50.7c-5,6-10.1,12-15.1,18c-19,22.9-29,49.1-28.7,79c0.3,26,6.7,50.6,15.2,74.9
	c6.7,19.4,16.3,37.2,30.2,52.4c20.7,22.6,46.4,37,75.8,44.9c50.2,13.4,99.5,8.8,147.5-9.7C1160,608.9,1211.5,561.7,1238.4,491.5z
	 M867.9,217.8c-21.1-21.1-21.1-55.3,0-76.3c21.1-21.1,55.3-21.1,76.3,0c21.1,21.1,21.1,55.3,0,76.3
	C923.2,238.9,889,238.9,867.9,217.8z M1013.8,233.5c-21.1-21.1-21.1-55.3,0-76.3c21.1-21.1,55.3-21.1,76.3,0s21.1,55.3,0,76.3
	C1069.1,254.6,1034.9,254.6,1013.8,233.5z M1148.1,455.6c21.1,21.1,21.1,55.3,0,76.3c-21.1,21.1-55.3,21.1-76.3,0
	c-21.1-21.1-21.1-55.3,0-76.3C1092.8,434.6,1127,434.6,1148.1,455.6z M916.1,581.2c-21.1-21.1-21.1-55.3,0-76.3
	c21.1-21.1,55.3-21.1,76.3,0c21.1,21.1,21.1,55.3,0,76.3C971.4,602.3,937.2,602.3,916.1,581.2z M1062.2,631.1
	c-37,10.6-74.5,11.9-112.1,2.8c-2.3-0.6-4.6-1.3-6.9-2c-0.2-0.1-0.3-0.5-0.2-0.3c90.3,12.1,167.3-15.7,229-81.9
	c62.1-66.7,77-147.9,64.5-236.1c1.6,8,3.6,16,4.8,24.1c7.8,50.8,4.7,100.8-14.9,148.7C1195.8,561.7,1139.7,608.9,1062.2,631.1z"/>
<g>
	<path class="st0" d="M1169.6,381.9c-12.6-17.3-25.7-32.4-40.7-45.9c-21.8-19.6-46.4-34.4-75.1-40.9c-31.1-7-62.4-8.7-93.5,0.4
		c-12.8,3.8-24,10.9-33.7,20.1c-1.3,1.2-2.2,3.6-2.2,5.4c-0.1,25.3-0.1,50.7,0.1,76c0,2.2,1.9,5,3.7,6.5
		c31.4,26.8,66.7,31.2,104.5,16.6c19.8-7.6,39-16.8,58.6-24.8c19.5-8,39.1-15.6,60.7-15.3C1157.4,380,1162.8,381.1,1169.6,381.9z"/>
	<path class="st0" d="M815.7,420c3.5-0.5,8.3-1.2,13-2c25.6-4.3,51.1-8.8,76.7-13c3.8-0.6,5.2-2,5.1-5.9c-0.1-25.3-0.2-50.6,0-75.9
		c0-5.2-2.8-6.9-6.9-7.8c-12.3-2.6-24.6-5-36.8-7.6c-14.3-3-28.6-6.1-42.9-9.1c-2.3-0.5-4.7-0.7-7.8-1.2L815.7,420z"/>
	<path class="st0" d="M794.7,299.2c3.9-0.8,8-1.7,8-1.7l0.4,122.5l-9.8-1.7c-2.9-0.5-5.8-0.8-8.7-1C715.5,414,237.4,372,212.8,368
		c-3.8-0.6-5.2-2-5.1-5.9c0.1-25.3,0.2,23.6,0-1.7c0-5.2,2.8-6.9,6.9-7.8l570.3-52.1C788.2,300.3,791.4,299.8,794.7,299.2z"/>
</g>
<text transform="matrix(1 0 0 1 1349.1053 624.4323)" class="st1 st2 st3">Buscarte</text>
</svg>
